<svg width="430" height="430" viewBox="0 0 430 430" fill="none" xmlns="http://www.w3.org/2000/svg">
<path d="M375.091 286.26L364.211 293.26H298.061C294.146 307.143 285.804 319.368 274.304 328.075C262.804 336.783 248.775 341.497 234.351 341.5H198.001C183.577 341.499 169.548 336.787 158.048 328.081C146.548 319.376 138.206 307.152 134.291 293.27H65.9107L54.9707 286.27L128.811 172C130.624 169.196 133.11 166.891 136.043 165.294C138.976 163.698 142.262 162.861 145.601 162.86H284.461C287.8 162.861 291.086 163.698 294.018 165.294C296.951 166.891 299.438 169.196 301.251 172L375.091 286.26Z" fill="#4BB3FD"/>
<g style="mix-blend-mode:multiply" opacity="0.6">
<path d="M375.091 286.26L364.211 293.26H298.061C294.146 307.143 285.804 319.368 274.304 328.075C262.804 336.783 248.775 341.497 234.351 341.5H198.001C183.577 341.499 169.548 336.787 158.048 328.081C146.548 319.376 138.206 307.152 134.291 293.27H65.9107L54.9707 286.27L128.811 172C130.624 169.196 133.11 166.891 136.043 165.294C138.976 163.698 142.262 162.861 145.601 162.86H284.461C287.8 162.861 291.086 163.698 294.018 165.294C296.951 166.891 299.438 169.196 301.251 172L375.091 286.26Z" fill="#4BB3FD"/>
</g>
<path d="M375.09 286.27C375.09 290.52 375.09 306.76 375.03 325.88V331.63C375.006 342.242 370.776 352.411 363.267 359.909C355.758 367.407 345.582 371.622 334.97 371.63H94.8502C89.6002 371.63 84.4016 370.595 79.552 368.584C74.7023 366.573 70.2967 363.626 66.5871 359.911C62.8776 356.196 59.9369 351.785 57.9332 346.933C55.9296 342.08 54.9023 336.88 54.9102 331.63V325.63C54.9102 306.73 54.9102 290.69 54.9102 286.27H132C132.639 286.274 133.26 286.482 133.773 286.863C134.285 287.244 134.663 287.779 134.85 288.39C139.117 301.785 147.536 313.475 158.89 321.765C170.244 330.055 183.942 334.515 198 334.5H234.36C248.415 334.498 262.105 330.025 273.45 321.729C284.795 313.433 293.207 301.743 297.47 288.35C297.666 287.742 298.051 287.212 298.569 286.838C299.087 286.464 299.711 286.265 300.35 286.27H375.09Z" fill="#4BB3FD"/>
<path d="M274.17 127.99L220.1 57.16C219.54 56.4318 218.82 55.842 217.995 55.4361C217.171 55.0303 216.264 54.8192 215.345 54.8192C214.426 54.8192 213.52 55.0303 212.695 55.4361C211.871 55.842 211.151 56.4318 210.59 57.16L155.83 128C155.372 128.592 155.088 129.301 155.013 130.046C154.937 130.791 155.072 131.542 155.402 132.214C155.733 132.886 156.245 133.452 156.881 133.848C157.517 134.243 158.251 134.452 159 134.45H184.28C184.811 134.45 185.319 134.661 185.695 135.036C186.07 135.411 186.28 135.92 186.28 136.45V250.69C186.28 253.342 187.334 255.886 189.209 257.761C191.085 259.636 193.628 260.69 196.28 260.69H233.65C236.302 260.69 238.846 259.636 240.721 257.761C242.597 255.886 243.65 253.342 243.65 250.69V136.45C243.65 135.92 243.861 135.411 244.236 135.036C244.611 134.661 245.12 134.45 245.65 134.45H271C271.751 134.453 272.487 134.245 273.125 133.849C273.763 133.453 274.277 132.886 274.607 132.212C274.938 131.538 275.072 130.785 274.995 130.038C274.918 129.292 274.632 128.582 274.17 127.99Z" fill="#FFC738"/>
<path d="M274.17 127.99L220.1 57.16C219.54 56.4318 218.82 55.842 217.995 55.4361C217.171 55.0303 216.264 54.8192 215.345 54.8192C214.426 54.8192 213.52 55.0303 212.695 55.4361C211.871 55.842 211.151 56.4318 210.59 57.16L155.83 128C155.372 128.592 155.088 129.301 155.013 130.046C154.937 130.791 155.072 131.542 155.402 132.214C155.733 132.886 156.245 133.452 156.881 133.848C157.517 134.243 158.251 134.452 159 134.45H184.28C184.811 134.45 185.319 134.661 185.695 135.036C186.07 135.411 186.28 135.92 186.28 136.45V250.69C186.28 253.342 187.334 255.886 189.209 257.761C191.085 259.636 193.628 260.69 196.28 260.69H233.65C236.302 260.69 238.846 259.636 240.721 257.761C242.597 255.886 243.65 253.342 243.65 250.69V136.45C243.65 135.92 243.861 135.411 244.236 135.036C244.611 134.661 245.12 134.45 245.65 134.45H271C271.751 134.453 272.487 134.245 273.125 133.849C273.763 133.453 274.277 132.886 274.607 132.212C274.938 131.538 275.072 130.785 274.995 130.038C274.918 129.292 274.632 128.582 274.17 127.99Z" fill="#FFC738"/>
<g style="mix-blend-mode:multiply" opacity="0.5">
<path d="M215 54.82V260.66H196.3C193.648 260.66 191.105 259.606 189.229 257.731C187.354 255.856 186.3 253.312 186.3 250.66V136.42C186.3 135.89 186.09 135.381 185.715 135.006C185.339 134.631 184.831 134.42 184.3 134.42H159C158.251 134.422 157.517 134.213 156.881 133.818C156.245 133.422 155.733 132.856 155.402 132.184C155.072 131.512 154.937 130.761 155.013 130.016C155.088 129.271 155.372 128.562 155.83 127.97L210.59 57.13C211.111 56.4448 211.776 55.8826 212.538 55.4834C213.3 55.0842 214.141 54.8577 215 54.82Z" fill="#FFC738"/>
</g>
</svg>
